<svg width="236" height="90" viewBox="0 0 236 90" fill="none" xmlns="http://www.w3.org/2000/svg">
<path opacity="0.7" d="M233.168 48.4465C230.278 55.8756 219.993 64.2179 199.99 67.3992C169.78 72.2067 171.887 81.672 113.259 83.2491C104.709 83.4934 96.007 83.407 87.3074 82.9913C83.0494 82.784 78.8046 82.4822 74.5992 82.0878C37.533 78.6205 12.9097 68.5976 4.19832 57.4034C-7.24732 42.6542 17.2396 34.3792 33.4575 29.4519C49.6753 24.5246 62.1149 7.54744 119.665 5.84668C128.446 5.57448 137.396 5.66164 146.34 6.10644C166.747 7.15757 188.913 10.4248 204.113 15.9352C205.258 16.3455 206.369 16.7705 207.444 17.2102C228.531 25.7398 237.111 38.3178 233.168 48.4465Z" fill="#FFCB6B"/>
<path d="M35.24 57V40.008H40.104L40.264 43.08L39.592 43.112C39.848 42.5573 40.168 42.0667 40.552 41.64C40.9573 41.2133 41.4053 40.8613 41.896 40.584C42.408 40.2853 42.9307 40.0613 43.464 39.912C44.0187 39.7627 44.5733 39.688 45.128 39.688C45.96 39.688 46.7173 39.816 47.4 40.072C48.0827 40.328 48.68 40.744 49.192 41.32C49.704 41.8747 50.1093 42.632 50.408 43.592L49.608 43.528L49.864 43.016C50.1413 42.504 50.4933 42.0453 50.92 41.64C51.368 41.2133 51.8587 40.8613 52.392 40.584C52.9253 40.2853 53.48 40.0613 54.056 39.912C54.632 39.7627 55.1867 39.688 55.72 39.688C57.064 39.688 58.184 39.9547 59.08 40.488C59.976 41 60.648 41.7787 61.096 42.824C61.5653 43.8693 61.8 45.1387 61.8 46.632V57H56.648V47.048C56.648 46.3653 56.552 45.8 56.36 45.352C56.168 44.904 55.88 44.5733 55.496 44.36C55.1333 44.1253 54.6747 44.008 54.12 44.008C53.672 44.008 53.256 44.0827 52.872 44.232C52.5093 44.3813 52.1893 44.584 51.912 44.84C51.656 45.096 51.4533 45.3947 51.304 45.736C51.1547 46.0773 51.08 46.4613 51.08 46.888V57H45.928V47.016C45.928 46.376 45.832 45.832 45.64 45.384C45.448 44.936 45.16 44.5947 44.776 44.36C44.392 44.1253 43.944 44.008 43.432 44.008C42.984 44.008 42.568 44.0827 42.184 44.232C41.8213 44.3813 41.5013 44.584 41.224 44.84C40.968 45.096 40.7653 45.3947 40.616 45.736C40.4667 46.0773 40.392 46.4507 40.392 46.856V57H35.24ZM72.4853 57.352C71.0133 57.352 69.7013 56.9787 68.5493 56.232C67.4186 55.464 66.5226 54.4187 65.8613 53.096C65.1999 51.752 64.8693 50.2267 64.8693 48.52C64.8693 46.8133 65.1999 45.2987 65.8613 43.976C66.5226 42.632 67.4293 41.576 68.5813 40.808C69.7333 40.04 71.0559 39.656 72.5493 39.656C73.3173 39.656 74.0533 39.7733 74.7573 40.008C75.4613 40.2427 76.1013 40.5627 76.6773 40.968C77.2533 41.3733 77.7226 41.8427 78.0853 42.376C78.4479 42.888 78.6613 43.4213 78.7253 43.976L77.5093 44.264V33.32H82.6613V57H77.8933L77.6053 53.128L78.6293 53.288C78.5653 53.8213 78.3519 54.3333 77.9893 54.824C77.6479 55.3147 77.1999 55.752 76.6453 56.136C76.0906 56.4987 75.4506 56.7867 74.7253 57C74.0213 57.2347 73.2746 57.352 72.4853 57.352ZM73.7973 53.096C74.5866 53.096 75.2693 52.904 75.8453 52.52C76.4213 52.136 76.8586 51.6027 77.1573 50.92C77.4773 50.2373 77.6373 49.4373 77.6373 48.52C77.6373 47.5813 77.4773 46.7707 77.1573 46.088C76.8586 45.4053 76.4213 44.872 75.8453 44.488C75.2693 44.104 74.5866 43.912 73.7973 43.912C73.0079 43.912 72.3253 44.104 71.7493 44.488C71.1946 44.872 70.7573 45.4053 70.4373 46.088C70.1173 46.7707 69.9573 47.5813 69.9573 48.52C69.9573 49.4373 70.1173 50.2373 70.4373 50.92C70.7573 51.6027 71.1946 52.136 71.7493 52.52C72.3253 52.904 73.0079 53.096 73.7973 53.096ZM93.2828 57.352C92.0241 57.352 90.9468 57.0853 90.0508 56.552C89.1761 55.9973 88.4934 55.208 88.0028 54.184C87.5334 53.16 87.2988 51.9333 87.2988 50.504V40.008H92.4508V49.8C92.4508 50.4827 92.5574 51.0693 92.7708 51.56C92.9841 52.0507 93.3041 52.4347 93.7308 52.712C94.1574 52.968 94.6694 53.096 95.2668 53.096C95.7148 53.096 96.1201 53.0213 96.4828 52.872C96.8668 52.7227 97.1868 52.52 97.4428 52.264C97.7201 51.9867 97.9334 51.6773 98.0828 51.336C98.2321 50.9733 98.3068 50.5787 98.3068 50.152V40.008H103.459V57H98.6268L98.4028 53.512L99.3628 53.128C99.1068 53.9387 98.6801 54.664 98.0828 55.304C97.4854 55.9227 96.7708 56.424 95.9388 56.808C95.1068 57.1707 94.2214 57.352 93.2828 57.352ZM108.022 57V40.008H112.886L113.11 45.544L112.15 44.488C112.406 43.5707 112.822 42.7493 113.398 42.024C113.995 41.2987 114.689 40.7227 115.478 40.296C116.267 39.8693 117.11 39.656 118.006 39.656C118.39 39.656 118.742 39.688 119.062 39.752C119.403 39.816 119.713 39.8907 119.99 39.976L118.582 45.64C118.347 45.4907 118.027 45.3733 117.622 45.288C117.238 45.1813 116.833 45.128 116.406 45.128C115.937 45.128 115.499 45.2133 115.094 45.384C114.689 45.5333 114.347 45.7573 114.07 46.056C113.793 46.3547 113.569 46.7067 113.398 47.112C113.249 47.5173 113.174 47.976 113.174 48.488V57H108.022ZM128.138 57.288C126.708 57.288 125.428 56.9147 124.298 56.168C123.188 55.4 122.303 54.3547 121.642 53.032C120.98 51.688 120.65 50.1733 120.65 48.488C120.65 46.76 120.98 45.2347 121.642 43.912C122.303 42.5893 123.21 41.5547 124.362 40.808C125.514 40.04 126.826 39.656 128.298 39.656C129.108 39.656 129.844 39.7733 130.506 40.008C131.188 40.2427 131.786 40.5733 132.298 41C132.81 41.4053 133.247 41.8853 133.61 42.44C133.972 42.9733 134.239 43.5493 134.41 44.168L133.354 44.04V40.008H138.442V57H133.258V52.904L134.41 52.872C134.239 53.4693 133.962 54.0347 133.578 54.568C133.194 55.1013 132.724 55.5707 132.17 55.976C131.615 56.3813 130.996 56.7013 130.314 56.936C129.631 57.1707 128.906 57.288 128.138 57.288ZM129.546 52.968C130.335 52.968 131.018 52.7867 131.594 52.424C132.17 52.0613 132.618 51.5493 132.938 50.888C133.258 50.2053 133.418 49.4053 133.418 48.488C133.418 47.5707 133.258 46.7813 132.938 46.12C132.618 45.4373 132.17 44.9147 131.594 44.552C131.018 44.168 130.335 43.976 129.546 43.976C128.778 43.976 128.106 44.168 127.53 44.552C126.975 44.9147 126.538 45.4373 126.218 46.12C125.898 46.7813 125.738 47.5707 125.738 48.488C125.738 49.4053 125.898 50.2053 126.218 50.888C126.538 51.5493 126.975 52.0613 127.53 52.424C128.106 52.7867 128.778 52.968 129.546 52.968ZM142.96 57V40.008H147.824L147.984 43.464L146.96 43.848C147.194 43.08 147.61 42.3867 148.208 41.768C148.826 41.128 149.562 40.616 150.416 40.232C151.269 39.848 152.165 39.656 153.104 39.656C154.384 39.656 155.461 39.9227 156.336 40.456C157.21 40.968 157.872 41.7467 158.319 42.792C158.768 43.816 158.992 45.0747 158.992 46.568V57H153.84V46.984C153.84 46.3013 153.744 45.736 153.552 45.288C153.36 44.84 153.061 44.5093 152.656 44.296C152.272 44.0613 151.792 43.9547 151.216 43.976C150.768 43.976 150.352 44.0507 149.968 44.2C149.584 44.328 149.253 44.5307 148.976 44.808C148.698 45.064 148.474 45.3627 148.304 45.704C148.154 46.0453 148.08 46.4187 148.08 46.824V57H145.552C144.954 57 144.442 57 144.016 57C143.589 57 143.237 57 142.96 57ZM169.704 57.352C168.232 57.352 166.92 56.9787 165.768 56.232C164.637 55.464 163.741 54.4187 163.08 53.096C162.419 51.752 162.088 50.2267 162.088 48.52C162.088 46.8133 162.419 45.2987 163.08 43.976C163.741 42.632 164.648 41.576 165.8 40.808C166.952 40.04 168.275 39.656 169.768 39.656C170.536 39.656 171.272 39.7733 171.976 40.008C172.68 40.2427 173.32 40.5627 173.896 40.968C174.472 41.3733 174.941 41.8427 175.304 42.376C175.667 42.888 175.88 43.4213 175.944 43.976L174.728 44.264V33.32H179.88V57H175.112L174.824 53.128L175.848 53.288C175.784 53.8213 175.571 54.3333 175.208 54.824C174.867 55.3147 174.419 55.752 173.864 56.136C173.309 56.4987 172.669 56.7867 171.944 57C171.24 57.2347 170.493 57.352 169.704 57.352ZM171.016 53.096C171.805 53.096 172.488 52.904 173.064 52.52C173.64 52.136 174.077 51.6027 174.376 50.92C174.696 50.2373 174.856 49.4373 174.856 48.52C174.856 47.5813 174.696 46.7707 174.376 46.088C174.077 45.4053 173.64 44.872 173.064 44.488C172.488 44.104 171.805 43.912 171.016 43.912C170.227 43.912 169.544 44.104 168.968 44.488C168.413 44.872 167.976 45.4053 167.656 46.088C167.336 46.7707 167.176 47.5813 167.176 48.52C167.176 49.4373 167.336 50.2373 167.656 50.92C167.976 51.6027 168.413 52.136 168.968 52.52C169.544 52.904 170.227 53.096 171.016 53.096ZM192.21 57.32C190.439 57.32 188.86 56.936 187.474 56.168C186.108 55.4 185.02 54.3547 184.21 53.032C183.42 51.7093 183.026 50.1947 183.026 48.488C183.026 46.7813 183.42 45.2667 184.21 43.944C185.02 42.6213 186.108 41.576 187.474 40.808C188.86 40.04 190.439 39.656 192.21 39.656C193.98 39.656 195.548 40.04 196.914 40.808C198.3 41.576 199.388 42.6213 200.178 43.944C200.967 45.2667 201.362 46.7813 201.362 48.488C201.362 50.1947 200.967 51.7093 200.178 53.032C199.388 54.3547 198.3 55.4 196.914 56.168C195.548 56.936 193.98 57.32 192.21 57.32ZM192.21 52.904C192.978 52.904 193.66 52.712 194.258 52.328C194.855 51.944 195.324 51.4213 195.666 50.76C196.007 50.0987 196.167 49.3413 196.146 48.488C196.167 47.6347 196.007 46.8773 195.666 46.216C195.324 45.5333 194.855 45 194.258 44.616C193.66 44.232 192.978 44.04 192.21 44.04C191.442 44.04 190.748 44.232 190.13 44.616C189.532 45 189.063 45.5333 188.722 46.216C188.38 46.8773 188.22 47.6347 188.242 48.488C188.22 49.3413 188.38 50.0987 188.722 50.76C189.063 51.4213 189.532 51.944 190.13 52.328C190.748 52.712 191.442 52.904 192.21 52.904Z" fill="white"/>
</svg>
